<?xml version="1.0" standalone="no"?><!DOCTYPE svg PUBLIC "-//W3C//DTD SVG 1.1//EN" "http://www.w3.org/Graphics/SVG/1.1/DTD/svg11.dtd"><svg t="1536995631754" class="icon" style="" viewBox="0 0 1024 1024" version="1.1" xmlns="http://www.w3.org/2000/svg" p-id="1892" xmlns:xlink="http://www.w3.org/1999/xlink" width="36" height="36"><defs><style type="text/css"></style></defs><path d="M226.1 601.4c1.7 2.1 4.1 3.3 6.8 3.3h126.5c4.8 0 8.7-3.9 8.7-8.7v-43.3c0-4.8-3.9-8.7-8.7-8.7h-127c-2.5 0-4.8 1-6.5 2.9-1.7 1.8-2.5 4.3-2.2 6.7l2.9 30-2.3 10.6c-0.5 2.4 0.1 5.1 1.8 7.2z" fill="#ffffff" p-id="1893"></path><path d="M432.7 881.9c-3.1-8-6-15.5-10.8-22.2-1.7-2.3-4.3-3.7-7.2-3.7H411l-5.4 0.1H151.8V159.7h584.8V353c0 4.8 3.7 8.6 8.5 8.7 6.4 0.2 14 1 21.3 1.7 7.4 0.7 15 1.5 21.6 1.7 2.4 0.1 4.6-0.8 6.3-2.4 1.7-1.6 2.7-3.9 2.7-6.3V131.9c0-16.9-16.9-33.5-34.1-33.5H123.6c-16.4 0-32.4 14.2-34.2 30.5 0 0.4-0.1 0.7-0.1 1.1v757.4c0 0.3 0 0.7 0.1 1 1.9 16.4 17.7 30.9 34 30.9h313.5c3.2 0 6.2-1.8 7.7-4.6s1.4-6.3-0.4-8.9c-5.2-7.8-8.4-16-11.5-23.9z" fill="#ffffff" p-id="1894"></path><path d="M529 439.3V396c0-4.8-3.9-8.7-8.7-8.7H232.1c-4.8 0-8.7 3.9-8.7 8.7v43.3c0 4.8 3.9 8.7 8.7 8.7h288.1c4.9 0 8.8-3.9 8.8-8.7zM609.8 308.6v-43.2c0-4.8-3.9-8.7-8.7-8.7H233c-2.7 0-5.2 1.2-6.9 3.3-1.7 2.1-2.3 4.8-1.6 7.4l2.2 9.1-2.9 31.3c-0.2 2.4 0.6 4.9 2.2 6.7 1.7 1.8 4 2.9 6.5 2.9h368.6c4.8-0.1 8.7-4 8.7-8.8zM836.8 768.3c35.9-36.1 55.7-83.8 55.7-134.6 0-101.2-79.1-184.9-180.1-190.5-28.2-1.6-55.4 2.6-81 12.4-24.7 9.4-46.6 23.6-65.2 42.2s-32.9 40.5-42.4 65.1c-9.8 25.5-14.1 52.8-12.6 80.9 2.5 47 22.1 91.1 55.4 124.5l-51 88.3c-1.6 2.8-1.6 6.3 0.2 9 1.7 2.8 4.8 4.3 8 4.1l64.6-4.6 28.2 58.3c1.4 2.9 4.3 4.8 7.6 4.9h0.3c3.1 0 6-1.7 7.6-4.4l57.6-99.8c4 0.2 7.9 0.4 12 0.4 4 0 8-0.1 12-0.4l57.6 99.8c1.6 2.8 4.7 4.5 7.9 4.4 3.2-0.1 6.1-2 7.6-4.9l28.2-58.3 64.6 4.6c3.3 0.2 6.3-1.3 8-4.1 1.7-2.7 1.8-6.2 0.2-9l-51-88.3z m-5-134.6c0 34.7-13.5 67.4-38.1 92-24.6 24.6-57.2 38.1-92 38.1s-67.5-13.5-91.9-38.1c-24.6-24.7-38.1-57.3-38.1-92 0-34.8 13.5-67.5 38.1-92 24.7-24.6 57.3-38.1 92-38.1 34.8 0 67.5 13.5 92 38.1 24.4 24.7 38 57.4 38 92z" fill="#ffffff" p-id="1895"></path></svg>