<?xml version="1.0" standalone="no"?><!DOCTYPE svg PUBLIC "-//W3C//DTD SVG 1.1//EN" "http://www.w3.org/Graphics/SVG/1.1/DTD/svg11.dtd"><svg class="icon" width="36px" height="36.00px" viewBox="0 0 1024 1024" version="1.1" xmlns="http://www.w3.org/2000/svg"><path fill="#ffffff" d="M662.438 802.11c-10.63-4.44-22.875 0.54-27.45 11.17-17.493 41.31-54.093 70.643-98.094 78.582-11.438 2.019-18.973 12.918-16.955 24.356 1.75 10.092 10.63 17.223 20.588 17.223 1.21 0 2.422-0.134 3.767-0.269 28.527-5.113 55.574-17.493 78.18-35.658 22.337-18.031 39.964-41.445 51.132-67.684 4.44-10.9-0.538-23.279-11.168-27.72z"  /><path fill="#ffffff" d="M674.548 550.08l-4.171-3.229V158.377C670.377 71.047 599.329 0 512 0S353.758 71.048 353.758 158.377V546.85l-4.172 3.23c-64.185 49.787-102.4 127.966-102.4 209.105 0 70.779 27.585 137.251 77.507 187.308C374.749 996.55 441.222 1024 512 1024s137.251-27.585 187.307-77.506c50.056-50.057 77.507-116.53 77.507-187.308 0-81.14-38.215-159.318-102.266-209.106zM513.346 980.134c-120.431 0-218.256-97.96-218.256-218.256 0-71.586 35.254-138.732 94.191-179.638 7.67-5.382 12.38-14.129 12.38-23.548V435.301h90.02c12.11 0 22.068-9.823 22.068-22.068 0-12.11-9.823-22.068-22.068-22.068h-90.02v-50.729h129.716c12.11 0 22.067-9.823 22.067-22.068 0-12.11-9.822-22.067-22.067-22.067H401.66V252.3h85.58c12.11 0 22.068-9.823 22.068-22.068 0-12.11-9.823-22.068-22.068-22.068h-85.58v-47.365c0-61.628 50.19-111.82 111.82-111.82S625.298 99.172 625.298 160.8v397.759c0 9.419 4.575 18.165 12.38 23.548 58.937 40.906 94.192 108.051 94.192 179.637-0.135 120.566-98.094 218.39-218.525 218.39z"  /></svg>