<?xml version="1.0" standalone="no"?><!DOCTYPE svg PUBLIC "-//W3C//DTD SVG 1.1//EN" "http://www.w3.org/Graphics/SVG/1.1/DTD/svg11.dtd"><svg class="icon" width="36px" height="36.00px" viewBox="0 0 1024 1024" version="1.1" xmlns="http://www.w3.org/2000/svg"><path fill="#ffffff" d="M945.356051 16.929325M281.605759 453.014224c-6.54699 0-13.118482-2.318449-18.379147-7.030894-11.340086-10.155849-12.300747-27.582503-2.145918-38.922588l161.66156-180.522569c10.155849-11.340086 27.582503-12.301768 38.922588-2.145918 11.340086 10.155849 12.300747 27.582503 2.145918 38.922588L302.1492 443.838432C296.704775 449.917854 289.171601 453.014224 281.605759 453.014224zM548.358104 455.708362c-7.129921 0-14.256779-2.749266-19.652201-8.234528-10.675484-10.85312-10.530517-28.305295 0.321581-38.980779l164.355698-161.66156c10.85414-10.674463 28.306316-10.530517 38.980779 0.321581 10.675484 10.85312 10.530517 28.305295-0.321581 38.980779L567.686682 447.795416C562.318823 453.074457 555.335911 455.708362 548.358104 455.708362zM746.393081 861.209332c-72.396668 0-131.296102-60.108172-131.296102-133.991261 0-5.295375 0.29708-10.541747 0.890219-15.729928L434.923556 711.488143c0.593139 5.188181 0.89124 10.435574 0.89124 15.729928 0 73.883089-58.899434 133.991261-131.297123 133.991261-72.397689 0-131.297123-60.108172-131.297123-133.991261 0-5.295375 0.298101-10.541747 0.89124-15.729928L68.108328 711.488143c-14.801936 0-26.960778-11.690252-27.542688-26.479938l-9.898584-251.561448c-0.295038-7.482129 2.4675-14.762121 7.651597-20.165711 5.184098-5.40359 12.343624-8.46525 19.831879-8.481584l711.085043-1.524194c0.019397 0 0.040836 0 0.060233 0 15.197022 0 27.530437 12.301768 27.563106 27.504915 0.032669 15.223565-12.28135 27.59067-27.504915 27.623338l-682.475522 1.46294 7.731227 196.494449 115.123106 0c9.290132 0 17.955476 4.679776 23.049735 12.447755s5.933433 17.580808 2.230652 26.101186c-4.422511 10.177288-6.664393 21.046742-6.664393 32.308219 0 43.485983 34.169308 78.863008 76.16887 78.863008s76.16887-35.377025 76.16887-78.863008c0-11.261477-2.241882-22.131952-6.664393-32.308219-3.70176-8.521399-2.863606-18.333207 2.230652-26.101186s13.759604-12.447755 23.049735-12.447755l252.30568 0c9.290132 0 17.955476 4.679776 23.049735 12.447755 5.094259 7.769 5.933433 17.581829 2.230652 26.102207-4.42149 10.174225-6.663372 21.043679-6.663372 32.307198 0 43.485983 34.169308 78.863008 76.167849 78.863008 42.000583 0 76.16887-35.377025 76.16887-78.863008 0-11.261477-2.241882-22.131952-6.664393-32.307198-3.702781-8.521399-2.864627-18.333207 2.230652-26.102207 5.094259-7.767979 13.759604-12.447755 23.049735-12.447755l66.841986 0 4.813513-202.16245-51.409138 0c-12.964328 0-24.176802-9.033887-26.933214-21.701135l-57.595753-264.604385L214.248222 167.892941l-73.840211 201.801054c-5.231059 14.296594-21.061034 21.646006-35.357628 16.413927-14.295573-5.231059-21.644986-21.061034-16.413927-35.357628l80.459685-219.89333c3.97638-10.866391 14.31497-18.092276 25.885777-18.092276l604.120919 0c12.964328 0 24.176802 9.033887 26.933214 21.701135l57.595753 264.604385 57.428326 0c7.423938 0 14.534462 2.995302 19.720601 8.307011 5.18716 5.311709 8.011973 12.491654 7.835358 19.91355l-6.126382 257.290703c-0.356292 14.963237-12.588639 26.907692-27.555959 26.907692l-58.133764 0c0.592118 5.188181 0.890219 10.435574 0.890219 15.729928C877.690204 801.10116 818.79077 861.209332 746.393081 861.209332z" /></svg>