<?xml version="1.0" standalone="no"?><!DOCTYPE svg PUBLIC "-//W3C//DTD SVG 1.1//EN" "http://www.w3.org/Graphics/SVG/1.1/DTD/svg11.dtd"><svg t="1535545412757" class="icon" style="" viewBox="0 0 1024 1024" version="1.1" xmlns="http://www.w3.org/2000/svg" p-id="1137" xmlns:xlink="http://www.w3.org/1999/xlink" width="36" height="36"><defs><style type="text/css"></style></defs><path d="M656.721591 931.031609c0.231267-0.289596 0.456395-0.583285 0.680499-0.880043 0.438998-0.584308 0.865717-1.177825 1.272993-1.786693 0.188288-0.278339 0.366344-0.566912 0.548492-0.853437 0.360204-0.567935 0.704035-1.14201 1.036609-1.727341 0.12996-0.229221 0.261966-0.453325 0.387833-0.685615 0.432859-0.798179 0.833995-1.613754 1.214664-2.441609 0.068562-0.149403 0.135076-0.300852 0.201591-0.451278 0.428765-0.968048 0.825808-1.951445 1.178849-2.955308l280.716426-787.498588c5.248537-14.725376 1.549286-31.157627-9.504468-42.211381-11.057847-11.054777-27.486004-14.758122-42.211381-9.505491L104.656083 360.78502c-1.302669 0.463558-2.579755 0.98749-3.824095 1.577938-4.134157 1.953492-7.79964 4.547573-10.934027 7.611352-0.069585 0.068562-0.141216 0.134053-0.211824 0.203638-0.334621 0.332575-0.661056 0.672312-0.983397 1.01512-0.147356 0.156566-0.296759 0.311085-0.443092 0.469698-0.237407 0.261966-0.468674 0.529049-0.698918 0.796132-0.218988 0.252757-0.437975 0.50449-0.650823 0.763386-0.149403 0.183172-0.294712 0.369414-0.442068 0.554632-0.278339 0.349971-0.554632 0.703011-0.821715 1.063215-0.074701 0.100284-0.146333 0.202615-0.218988 0.303922-0.324388 0.446162-0.64366 0.898463-0.951675 1.359974-0.013303 0.020466-0.026606 0.041956-0.040932 0.062422-1.757017 2.64627-3.221368 5.52483-4.331655 8.606005-0.007163 0.021489-0.014326 0.042979-0.021489 0.062422-0.207731 0.577145-0.405229 1.159406-0.586354 1.749854-0.806365 2.601244-1.347694 5.290493-1.616824 8.027837-0.00307 0.036839-0.005117 0.073678-0.00921 0.11154-0.058328 0.617054-0.105401 1.236154-0.135076 1.857301-0.007163 0.137123-0.00921 0.275269-0.014326 0.412392-0.019443 0.511653-0.034792 1.02433-0.034792 1.539053 0 0.232291 0.008186 0.462534 0.011256 0.693802 0.007163 0.414439 0.014326 0.828878 0.033769 1.243317 0.01535 0.324388 0.041956 0.645706 0.064468 0.968048 0.022513 0.321318 0.044002 0.642636 0.074701 0.963954 0.039909 0.412392 0.091074 0.822738 0.143263 1.233084 0.029676 0.231267 0.055259 0.462534 0.088004 0.692778 0.072655 0.506537 0.160659 1.00898 0.25378 1.511423 0.025583 0.13917 0.046049 0.277316 0.073678 0.414439 0.11768 0.605797 0.25071 1.206478 0.396019 1.804089 0.00921 0.042979 0.01842 0.083911 0.027629 0.125867 0.657986 2.672876 1.578961 5.259794 2.750647 7.720845 0.213871 0.452301 0.444115 0.89437 0.674359 1.335415 0.064468 0.12382 0.122797 0.251733 0.189312 0.37453 1.523703 2.860141 3.364631 5.473665 5.455245 7.821129 0.041956 0.048095 0.083911 0.096191 0.125867 0.144286 0.345877 0.385786 0.700965 0.76134 1.061169 1.130753 0.11154 0.115634 0.221034 0.233314 0.334621 0.347924 0.291642 0.293689 0.590448 0.578168 0.890276 0.861624 0.197498 0.187265 0.393973 0.376577 0.595564 0.559748 0.220011 0.200568 0.445138 0.393973 0.669242 0.588401 0.294712 0.255827 0.588401 0.511653 0.889253 0.760317 0.140193 0.113587 0.283456 0.225127 0.424672 0.337691 0.39295 0.314155 0.789992 0.624217 1.196245 0.925069 0.052189 0.039909 0.106424 0.076748 0.159636 0.11461 3.65218 2.675946 7.79964 4.768607 12.335956 6.116301 1.178849 0.352017 2.375094 0.654916 3.585665 0.899486l395.411655 79.772858 79.750345 395.302161c0.232291 1.161453 0.518816 2.309602 0.848321 3.442402 0.033769 0.11768 0.064468 0.23536 0.101307 0.352017 0.287549 0.959861 0.618077 1.90335 0.978281 2.838651 0.095167 0.246617 0.188288 0.494257 0.287549 0.740874 0.340761 0.836041 0.708128 1.658779 1.101077 2.468215 0.148379 0.302899 0.298805 0.601704 0.453325 0.898463 0.401136 0.772596 0.818645 1.534959 1.267876 2.28095 0.159636 0.26606 0.328481 0.523933 0.49528 0.785899 0.456395 0.722454 0.931209 1.431605 1.432629 2.12336 0.122797 0.170892 0.24764 0.337691 0.37453 0.506537 0.560772 0.748037 1.152243 1.474584 1.766226 2.185782 0.096191 0.109494 0.189312 0.226151 0.285502 0.334621 0.687662 0.778736 1.411139 1.526773 2.159176 2.254344 0.071631 0.067538 0.144286 0.13917 0.215918 0.206708 2.359744 2.252297 5.013177 4.239558 7.93574 5.89629 0.086981 0.049119 0.173962 0.098237 0.25992 0.148379 0.881067 0.491187 1.787716 0.953721 2.715855 1.384533 0.189312 0.088004 0.38067 0.168846 0.573051 0.252757 0.791016 0.353041 1.599428 0.685615 2.425236 0.989537 1.24741 0.463558 2.518357 0.87288 3.812839 1.210571 0.062422 0.016373 0.122797 0.025583 0.185218 0.039909 1.043772 0.26913 2.098801 0.502443 3.169179 0.687662 0.472767 0.081864 0.943488 0.12075 1.414209 0.186242 0.655939 0.090051 1.306762 0.194428 1.969864 0.251733 1.161453 0.101307 2.320858 0.153496 3.475148 0.153496 0.10847 0 0.215918-0.01228 0.323365-0.01228 0.753153-0.007163 1.5104-0.038886 2.269693-0.088004 0.318248-0.021489 0.633427-0.041956 0.950651-0.069585 0.811482-0.071631 1.627057-0.161682 2.441609-0.284479 0.264013-0.038886 0.525979-0.093121 0.787946-0.13917 0.410346-0.068562 0.822738-0.134053 1.233084-0.215918 0.227174-0.046049 0.448208-0.104377 0.672312-0.152473 0.295735-0.066515 0.592494-0.12996 0.88516-0.201591 0.864694-0.210801 1.720178-0.442068 2.558265-0.703011 0.031722-0.00921 0.063445-0.021489 0.095167-0.031722 0.902556-0.284479 1.786693-0.606821 2.65855-0.948605 0.088004-0.035816 0.174985-0.068562 0.261966-0.104377 1.863441-0.750083 3.650133-1.629103 5.349845-2.625804 0.01228-0.007163 0.025583-0.014326 0.037862-0.022513 1.700735-0.99977 3.313465-2.115174 4.832052-3.338025 0.096191-0.077771 0.194428-0.152473 0.289596-0.232291 0.691755-0.567935 1.36509-1.156336 2.01489-1.766226 0.178055-0.164752 0.349971-0.338714 0.525979-0.50756 0.488117-0.474814 0.961908-0.960885 1.424442-1.458211 0.188288-0.200568 0.379647-0.397043 0.564865-0.600681C655.74638 932.235017 656.240637 931.638429 656.721591 931.031609zM547.965631 444.358437l-278.847869-56.257282L839.060429 184.934966 635.895263 754.881726l-56.257282-278.850939C576.416614 460.061071 563.934325 447.579805 547.965631 444.358437z" p-id="1138" fill="#ffffff"></path></svg>