<?xml version="1.0" standalone="no"?><!DOCTYPE svg PUBLIC "-//W3C//DTD SVG 1.1//EN" "http://www.w3.org/Graphics/SVG/1.1/DTD/svg11.dtd"><svg class="icon" width="36px" height="36.00px" viewBox="0 0 1024 1024" version="1.1" xmlns="http://www.w3.org/2000/svg"><path fill="#ffffff" d="M914.970624 363.815936l0.002048-0.048128L724.676608 158.973952 623.22688 158.973952l-14.178304 0c0 0-0.038912 0.03072-0.095232 0.074752-8.411136 0.177152-15.29856 6.474752-16.407552 14.623744-0.037888 0.084992-0.06144 0.160768-0.069632 0.22528-4.032512 32.922624-39.126016 52.835328-81.821696 52.835328-42.679296 0-77.761536-19.898368-81.816576-52.79744-0.001024-0.009216-0.008192-0.021504-0.01024-0.03072-1.00352-8.395776-8.13568-14.907392-16.800768-14.911488-0.008192-0.006144-0.024576-0.019456-0.024576-0.019456l-9.869312 0-4.048896 0L299.27424 158.973952 108.848128 363.908096l0.003072 0.055296c-3.571712 4.00896-5.746688 9.291776-5.746688 15.084544 0 6.569984 2.796544 12.485632 7.26016 16.628736l0.007168 0.157696 152.973312 141.075456 0 308.26496 0.033792 0.03584c-0.003072 0.140288-0.02048 0.27648-0.02048 0.418816 0 10.566656 8.452096 19.141632 18.961408 19.376128l0.02048 0.021504 202.377216 0 54.513664 0 201.746432 0 0.009216-0.009216c0.060416 0.001024 0.119808 0.009216 0.180224 0.009216 10.619904 0 19.233792-8.536064 19.38432-19.120128l0.052224-0.0512L760.603648 536.909824l153.290752-141.367296 0.002048-0.057344c4.31104-4.129792 6.99904-9.938944 6.99904-16.379904C920.895488 373.214208 918.65088 367.849472 914.970624 363.815936zM760.566784 494.969856l0-25.545728c0.012288-0.249856 0.037888-0.49664 0.037888-0.748544 0-8.536064-6.920192-15.456256-15.456256-15.456256-8.536064 0-15.456256 6.920192-15.456256 15.456256 0 0.125952 0.016384 0.248832 0.019456 0.37376l0 99.331072 0.037888 0 0 261.59104 0 4.1984-4.209664 0L590.595072 834.169856l-51.362816 0-54.513664 0-26.619904 0L298.384384 834.169856l-4.169728 0 0-4.169728c-0.004096-0.003072-0.008192-0.00512-0.012288-0.008192L294.202368 568.568832l0.239616 0 0-98.955264c0.012288-0.249856 0.037888-0.49664 0.037888-0.748544 0-8.536064-6.920192-15.456256-15.456256-15.456256s-15.456256 6.920192-15.456256 15.456256c0 0.125952 0.016384 0.248832 0.019456 0.37376l0 25.91744L137.263104 378.658816 312.723456 189.82912 400.9984 189.82912c12.326912 39.716864 56.74496 69.126144 109.657088 69.126144 52.599808 0 96.807936-29.062144 109.437952-68.421632 0.263168-0.23552 0.536576-0.470016 0.792576-0.704512l90.340352 0 175.461376 188.828672L760.566784 494.969856z" /></svg>