<?xml version="1.0" standalone="no"?><!DOCTYPE svg PUBLIC "-//W3C//DTD SVG 1.1//EN" "http://www.w3.org/Graphics/SVG/1.1/DTD/svg11.dtd"><svg class="icon" width="36px" height="36.00px" viewBox="0 0 1024 1024" version="1.1" xmlns="http://www.w3.org/2000/svg"><path fill="#ffffff" d="M969.004032 331.020288c0-153.810944-124.940288-278.498304-279.06048-278.498304-83.698688 0-158.779392 36.783104-209.928192 95.024128l0.252928 0.238592L140.33408 496.822272l0.028672 0.027648c-53.161984 50.707456-86.300672 122.146816-86.300672 201.330688 0 153.810944 124.940288 278.498304 279.06048 278.498304 85.914624 0 162.748416-38.7584 213.9392-99.697664l-0.162816-0.152576 338.190336-347.24864 0.256 0.241664c5.233664-5.124096 10.254336-10.462208 15.072256-15.981568l1.31584-1.35168-0.08192-0.079872C943.618048 463.67744 969.004032 400.316416 969.004032 331.020288zM518.270976 856.977408l0.402432 0.390144c-44.875776 52.04992-111.34976 85.020672-185.550848 85.020672-135.143424 0-244.699136-109.334528-244.699136-244.206592 0-70.9632 30.339072-134.84544 78.767104-179.463168l-0.113664-0.10752 158.4896-162.735104 345.731072 343.975936L518.270976 856.977408zM875.475968 490.20416 695.589888 674.90816 349.858816 330.932224l173.980672-178.640896-0.3072-0.297984c43.664384-40.44288 102.13888-65.179648 166.409216-65.179648 135.143424 0 244.699136 109.334528 244.699136 244.206592C934.641664 391.844864 912.339968 447.455232 875.475968 490.20416zM828.481536 184.99072c-33.588224-31.148032-77.753344-51.3024-127.04768-54.26176-67.191808-4.033536-128.746496 24.778752-169.06752 72.541184l-82.29888 85.465088 0.01024 0.01024c-3.156992 3.301376-5.106688 7.76704-5.106688 12.695552 0 10.156032 8.23296 18.388992 18.388992 18.388992 5.178368 0 9.848832-2.148352 13.190144-5.592064l0.048128 0.04608 81.695744-84.839424 0.273408 0.22016c1.051648-1.29536 2.122752-2.574336 3.21024-3.836928l2.036736-2.11456-0.08704-0.083968c33.0496-37.030912 82.095104-59.138048 135.486464-55.932928 41.029632 2.46272 77.725696 19.459072 105.402368 45.672448l0.054272-0.059392c3.262464 2.875392 7.533568 4.6336 12.224512 4.6336 10.226688 0 18.516992-8.290304 18.516992-18.516992C835.412992 193.584128 832.704512 188.384256 828.481536 184.99072z" /></svg>