<?xml version="1.0" standalone="no"?><!DOCTYPE svg PUBLIC "-//W3C//DTD SVG 1.1//EN" "http://www.w3.org/Graphics/SVG/1.1/DTD/svg11.dtd"><svg t="1535545402969" class="icon" style="" viewBox="0 0 1028 1024" version="1.1" xmlns="http://www.w3.org/2000/svg" p-id="966" xmlns:xlink="http://www.w3.org/1999/xlink" width="36.140625" height="36"><defs><style type="text/css"></style></defs><path d="M686.16 354.864l-209.408 149.44c-39.536 11.312-68.64 47.296-68.64 90.448 0 52.192 42.304 94.464 94.416 94.464 51.296 0 92.784-41.008 94.16-92.048L686.16 354.864z" p-id="967" fill="#ffffff"></path><path d="M842 960c-8.608 0-17.216-3.44-23.568-10.256-12.112-13.008-11.392-33.408 1.632-45.536 90.56-84.448 142.496-203.952 142.496-327.808 0-247.024-200.768-447.984-447.6-447.984-246.832 0-447.664 200.96-447.664 447.984 0 123.776 51.936 243.232 142.48 327.744 12.992 12.144 13.696 32.528 1.584 45.552-12.128 12.992-32.496 13.68-45.488 1.584C62.336 854.608 2.944 717.968 2.944 576.4 2.944 293.872 232.64 64 514.976 64 797.28 64 1026.944 293.872 1026.944 576.4c0 141.664-59.408 278.336-163.008 374.944C857.728 957.136 849.856 960 842 960z" p-id="968" fill="#ffffff"></path></svg>