<?xml version="1.0" standalone="no"?><!DOCTYPE svg PUBLIC "-//W3C//DTD SVG 1.1//EN" "http://www.w3.org/Graphics/SVG/1.1/DTD/svg11.dtd"><svg class="icon" width="36px" height="36.00px" viewBox="0 0 1024 1024" version="1.1" xmlns="http://www.w3.org/2000/svg"><path fill="#ffffff" d="M920.449599 339.588255c-33.787524-79.883375-90.231047-147.852396-161.276127-195.847503C688.131463 95.745644 602.485851 67.720358 510.294149 67.720358c-18.583241 0-36.781718 1.500167-54.764278 3.710508-1.856277 0.240477-3.676739 0.579191-5.5279 0.844228-17.308201 2.350534-34.251082 5.722328-50.867528 10.003841C221.718731 127.977743 86.964654 279.814894 67.603701 466.37794l-0.00307 0c0 0.01228-0.00307 0.024559-0.00307 0.036839-1.533936 14.792914-2.316765 29.80584-2.365884 44.989657-0.00307 0.491187-0.076748 0.960885-0.076748 1.451048 0 61.458747 12.45773 120.012328 34.982746 173.267229 33.787524 79.883375 90.234117 147.852396 161.276127 195.847503 23.683399 16.000416 48.983621 29.77821 75.612095 41.040718 53.254901 22.525016 111.808482 34.979676 173.267229 34.979676 15.0733 0 29.967522-0.771573 44.650943-2.25639 14.655791-1.460258 29.086455-3.667529 43.287899-6.515391 0.00921-0.00307 0.024559-0.00307 0.033769-0.00614 202.899106-40.684608 355.846544-219.265866 357.038696-433.857269 0.00307-0.841158 0.124843-1.655709 0.124843-2.499937C955.429275 451.392644 942.974615 392.842133 920.449599 339.588255zM453.069843 122.29737c19.336394-2.960425 38.485523-4.625344 57.224306-4.625344 13.235442 0 26.306132 0.707105 39.209 1.985214 4.371564 0.432859 8.613168 1.289366 12.942777 1.865487 8.454556 1.121544 16.924461 2.204202 25.201985 3.856841 5.015224 0.99977 9.874905 2.402723 14.823614 3.591805 7.393387 1.777483 14.811334 3.490497 22.036899 5.680373 5.146207 1.557472 10.134825 3.463891 15.189957 5.222955 6.804986 2.368954 13.622252 4.704139 20.250206 7.427156 5.055133 2.076288 9.954723 4.448312 14.902408 6.726192 6.353708 2.929726 12.710486 5.859451 18.882046 9.107425 4.89652 2.579755 9.637498 5.393847 14.412244 8.16803 5.930059 3.448542 11.83249 6.935969 17.560958 10.680247 4.634554 3.027963 9.134031 6.228865 13.631462 9.445116 5.54939 3.966335 11.040451 8.006348 16.369829 12.246929 4.332678 3.448542 8.55484 7.021927 12.738116 10.643408 5.121648 4.436032 10.149151 8.978489 15.037485 13.671371 4.003174 3.844561 7.924483 7.765871 11.765975 11.772115 4.685719 4.88731 9.232269 9.908674 13.665231 15.034415 3.62762 4.189416 7.201006 8.426927 10.652618 12.768815 4.222161 5.314029 8.256034 10.783601 12.211113 16.317641 3.219321 4.50664 6.427386 9.018398 9.457396 13.665231 3.753487 5.749958 7.256264 11.667737 10.714016 17.619286 2.755764 4.747117 5.54939 9.469676 8.109702 14.338566 3.25616 6.188956 6.201236 12.564154 9.134031 18.939351 2.27174 4.936429 4.625344 9.82374 6.695492 14.866592 2.726088 6.637164 5.067412 13.46364 7.436366 20.274766 1.755993 5.052063 3.64911 10.030447 5.204535 15.174608 2.167363 7.17747 3.875261 14.543228 5.640464 21.887496 1.204431 5.006014 2.612501 9.930163 3.625574 15.009855 1.603521 8.058536 2.64934 16.302291 3.753487 24.52865 0.61296 4.557806 1.500167 9.030677 1.954515 13.634532 0.042979 0.438998 0.027629 0.893346 0.066515 1.332345-20.085454 3.189645-39.97034 4.808516-59.422368 4.808516-205.134007 0-374.257869-157.098991-393.374252-357.309872C451.535907 122.535801 452.30134 122.407887 453.069843 122.29737zM550.746466 905.94628c-13.485129 1.390673-27.004027 2.091638-40.452317 2.091638-68.096934 0-132.223441-17.311271-188.212616-47.76691C198.904119 793.269012 115.111714 662.664442 115.111714 512.855484c0-1.085728 0.152473-2.134617 0.161682-3.219321 13.44215-1.378393 26.900673-2.082428 40.302915-2.082428 217.902822 0 395.182434 177.276543 395.182434 395.182434C550.758746 903.803477 550.755676 904.872832 550.746466 905.94628zM600.434122 897.263527c-2.963495-243.291049-200.865797-439.662485-444.85781-439.662485-12.296047 0-24.382317 0.841158-36.421514 1.835811 21.269419-156.327418 134.013203-283.694247 282.597263-326.247412 24.143886 223.045959 212.924437 396.72558 442.394712 396.72558 20.656459 0 40.848337-1.777483 60.703547-4.637624C899.175063 706.58372 771.06122 857.234859 600.434122 897.263527z" /></svg>